<mxfile host="app.diagrams.net" modified="2023-08-04T21:23:53.206Z" agent="Mozilla/5.0 (Windows NT 10.0; Win64; x64) AppleWebKit/537.36 (KHTML, like Gecko) Chrome/115.0.0.0 Safari/537.36" etag="N4DDljR3cYuxWsXRjymq" version="21.6.6" type="github" pages="8">
  <diagram name="systemCreation" id="eP_RwN2n6RdSRVUM_CwO">
    <mxGraphModel dx="934" dy="864" grid="1" gridSize="10" guides="1" tooltips="1" connect="1" arrows="1" fold="1" page="1" pageScale="1" pageWidth="827" pageHeight="1169" math="0" shadow="0">
      <root>
        <mxCell id="R0bkzWcn6Nqj6Yno1ocy-0" />
        <mxCell id="R0bkzWcn6Nqj6Yno1ocy-1" parent="R0bkzWcn6Nqj6Yno1ocy-0" />
        <mxCell id="R0bkzWcn6Nqj6Yno1ocy-2" value="" style="edgeStyle=orthogonalEdgeStyle;rounded=0;orthogonalLoop=1;jettySize=auto;html=1;" edge="1" parent="R0bkzWcn6Nqj6Yno1ocy-1" source="R0bkzWcn6Nqj6Yno1ocy-3" target="R0bkzWcn6Nqj6Yno1ocy-6">
          <mxGeometry relative="1" as="geometry" />
        </mxCell>
        <mxCell id="R0bkzWcn6Nqj6Yno1ocy-3" value="Select an Analog/I2C sensor" style="rounded=1;whiteSpace=wrap;html=1;fontSize=12;glass=0;strokeWidth=1;shadow=0;" vertex="1" parent="R0bkzWcn6Nqj6Yno1ocy-1">
          <mxGeometry x="180" y="80" width="120" height="40" as="geometry" />
        </mxCell>
        <mxCell id="R0bkzWcn6Nqj6Yno1ocy-4" value="No" style="edgeStyle=orthogonalEdgeStyle;rounded=0;orthogonalLoop=1;jettySize=auto;html=1;" edge="1" parent="R0bkzWcn6Nqj6Yno1ocy-1" source="R0bkzWcn6Nqj6Yno1ocy-6" target="R0bkzWcn6Nqj6Yno1ocy-8">
          <mxGeometry relative="1" as="geometry" />
        </mxCell>
        <mxCell id="R0bkzWcn6Nqj6Yno1ocy-5" value="Yes" style="edgeStyle=orthogonalEdgeStyle;rounded=0;orthogonalLoop=1;jettySize=auto;html=1;" edge="1" parent="R0bkzWcn6Nqj6Yno1ocy-1" source="R0bkzWcn6Nqj6Yno1ocy-6" target="R0bkzWcn6Nqj6Yno1ocy-11">
          <mxGeometry relative="1" as="geometry" />
        </mxCell>
        <mxCell id="R0bkzWcn6Nqj6Yno1ocy-6" value="Driver exists?" style="rhombus;whiteSpace=wrap;html=1;shadow=0;fontFamily=Helvetica;fontSize=12;align=center;strokeWidth=1;spacing=6;spacingTop=-4;" vertex="1" parent="R0bkzWcn6Nqj6Yno1ocy-1">
          <mxGeometry x="175" y="170" width="130" height="110" as="geometry" />
        </mxCell>
        <mxCell id="R0bkzWcn6Nqj6Yno1ocy-7" value="" style="edgeStyle=orthogonalEdgeStyle;rounded=0;orthogonalLoop=1;jettySize=auto;html=1;" edge="1" parent="R0bkzWcn6Nqj6Yno1ocy-1" source="R0bkzWcn6Nqj6Yno1ocy-8" target="R0bkzWcn6Nqj6Yno1ocy-21">
          <mxGeometry relative="1" as="geometry" />
        </mxCell>
        <mxCell id="R0bkzWcn6Nqj6Yno1ocy-8" value="Create driver" style="rounded=1;whiteSpace=wrap;html=1;fontSize=12;glass=0;strokeWidth=1;shadow=0;" vertex="1" parent="R0bkzWcn6Nqj6Yno1ocy-1">
          <mxGeometry x="360" y="205" width="120" height="40" as="geometry" />
        </mxCell>
        <mxCell id="R0bkzWcn6Nqj6Yno1ocy-9" value="Yes" style="edgeStyle=orthogonalEdgeStyle;rounded=0;orthogonalLoop=1;jettySize=auto;html=1;exitX=0;exitY=0.5;exitDx=0;exitDy=0;entryX=0;entryY=0.5;entryDx=0;entryDy=0;" edge="1" parent="R0bkzWcn6Nqj6Yno1ocy-1" source="R0bkzWcn6Nqj6Yno1ocy-11" target="R0bkzWcn6Nqj6Yno1ocy-3">
          <mxGeometry relative="1" as="geometry" />
        </mxCell>
        <mxCell id="X1dvKrp_Ua0pMOF5n164-7" value="" style="edgeStyle=orthogonalEdgeStyle;rounded=0;orthogonalLoop=1;jettySize=auto;html=1;" edge="1" parent="R0bkzWcn6Nqj6Yno1ocy-1" source="R0bkzWcn6Nqj6Yno1ocy-11" target="iFYgI6rw6ifgHwxi8tnC-0">
          <mxGeometry relative="1" as="geometry" />
        </mxCell>
        <mxCell id="R0bkzWcn6Nqj6Yno1ocy-11" value="More sensors?" style="rhombus;whiteSpace=wrap;html=1;shadow=0;fontFamily=Helvetica;fontSize=12;align=center;strokeWidth=1;spacing=6;spacingTop=-4;" vertex="1" parent="R0bkzWcn6Nqj6Yno1ocy-1">
          <mxGeometry x="175" y="330" width="130" height="110" as="geometry" />
        </mxCell>
        <mxCell id="R0bkzWcn6Nqj6Yno1ocy-14" value="Deploy system" style="rounded=1;whiteSpace=wrap;html=1;fontSize=12;glass=0;strokeWidth=1;shadow=0;" vertex="1" parent="R0bkzWcn6Nqj6Yno1ocy-1">
          <mxGeometry x="180" y="1040" width="120" height="40" as="geometry" />
        </mxCell>
        <mxCell id="R0bkzWcn6Nqj6Yno1ocy-15" value="No" style="edgeStyle=orthogonalEdgeStyle;rounded=0;orthogonalLoop=1;jettySize=auto;html=1;" edge="1" parent="R0bkzWcn6Nqj6Yno1ocy-1" source="R0bkzWcn6Nqj6Yno1ocy-17" target="R0bkzWcn6Nqj6Yno1ocy-19">
          <mxGeometry relative="1" as="geometry" />
        </mxCell>
        <mxCell id="R0bkzWcn6Nqj6Yno1ocy-16" value="Yes" style="edgeStyle=orthogonalEdgeStyle;rounded=0;orthogonalLoop=1;jettySize=auto;html=1;" edge="1" parent="R0bkzWcn6Nqj6Yno1ocy-1" source="R0bkzWcn6Nqj6Yno1ocy-17" target="R0bkzWcn6Nqj6Yno1ocy-26">
          <mxGeometry relative="1" as="geometry" />
        </mxCell>
        <mxCell id="R0bkzWcn6Nqj6Yno1ocy-17" value="Case design exists?" style="rhombus;whiteSpace=wrap;html=1;shadow=0;fontFamily=Helvetica;fontSize=12;align=center;strokeWidth=1;spacing=6;spacingTop=-4;" vertex="1" parent="R0bkzWcn6Nqj6Yno1ocy-1">
          <mxGeometry x="175" y="720" width="130" height="110" as="geometry" />
        </mxCell>
        <mxCell id="R0bkzWcn6Nqj6Yno1ocy-18" value="" style="rounded=0;orthogonalLoop=1;jettySize=auto;html=1;exitX=0.5;exitY=1;exitDx=0;exitDy=0;entryX=1;entryY=0.5;entryDx=0;entryDy=0;" edge="1" parent="R0bkzWcn6Nqj6Yno1ocy-1" source="R0bkzWcn6Nqj6Yno1ocy-19" target="R0bkzWcn6Nqj6Yno1ocy-26">
          <mxGeometry relative="1" as="geometry" />
        </mxCell>
        <mxCell id="R0bkzWcn6Nqj6Yno1ocy-19" value="Create case" style="rounded=1;whiteSpace=wrap;html=1;fontSize=12;glass=0;strokeWidth=1;shadow=0;" vertex="1" parent="R0bkzWcn6Nqj6Yno1ocy-1">
          <mxGeometry x="360" y="755" width="120" height="40" as="geometry" />
        </mxCell>
        <mxCell id="R0bkzWcn6Nqj6Yno1ocy-20" value="" style="edgeStyle=orthogonalEdgeStyle;rounded=0;orthogonalLoop=1;jettySize=auto;html=1;" edge="1" parent="R0bkzWcn6Nqj6Yno1ocy-1" source="R0bkzWcn6Nqj6Yno1ocy-21" target="R0bkzWcn6Nqj6Yno1ocy-11">
          <mxGeometry relative="1" as="geometry" />
        </mxCell>
        <mxCell id="R0bkzWcn6Nqj6Yno1ocy-21" value="Compile and flash firmware" style="rounded=1;whiteSpace=wrap;html=1;fontSize=12;glass=0;strokeWidth=1;shadow=0;" vertex="1" parent="R0bkzWcn6Nqj6Yno1ocy-1">
          <mxGeometry x="360" y="365" width="120" height="40" as="geometry" />
        </mxCell>
        <mxCell id="R0bkzWcn6Nqj6Yno1ocy-22" value="No" style="edgeStyle=orthogonalEdgeStyle;rounded=0;orthogonalLoop=1;jettySize=auto;html=1;" edge="1" parent="R0bkzWcn6Nqj6Yno1ocy-1" source="R0bkzWcn6Nqj6Yno1ocy-24" target="R0bkzWcn6Nqj6Yno1ocy-30">
          <mxGeometry relative="1" as="geometry" />
        </mxCell>
        <mxCell id="R0bkzWcn6Nqj6Yno1ocy-23" value="Yes" style="edgeStyle=orthogonalEdgeStyle;rounded=0;orthogonalLoop=1;jettySize=auto;html=1;" edge="1" parent="R0bkzWcn6Nqj6Yno1ocy-1" source="R0bkzWcn6Nqj6Yno1ocy-24" target="R0bkzWcn6Nqj6Yno1ocy-28">
          <mxGeometry relative="1" as="geometry" />
        </mxCell>
        <mxCell id="R0bkzWcn6Nqj6Yno1ocy-24" value="Sensor case exists?" style="rhombus;whiteSpace=wrap;html=1;shadow=0;fontFamily=Helvetica;fontSize=12;align=center;strokeWidth=1;spacing=6;spacingTop=-4;" vertex="1" parent="R0bkzWcn6Nqj6Yno1ocy-1">
          <mxGeometry x="360" y="480" width="130" height="110" as="geometry" />
        </mxCell>
        <mxCell id="X1dvKrp_Ua0pMOF5n164-8" value="" style="edgeStyle=orthogonalEdgeStyle;rounded=0;orthogonalLoop=1;jettySize=auto;html=1;" edge="1" parent="R0bkzWcn6Nqj6Yno1ocy-1" source="R0bkzWcn6Nqj6Yno1ocy-26" target="X1dvKrp_Ua0pMOF5n164-6">
          <mxGeometry relative="1" as="geometry" />
        </mxCell>
        <mxCell id="R0bkzWcn6Nqj6Yno1ocy-26" value="Assemble case" style="rounded=1;whiteSpace=wrap;html=1;fontSize=12;glass=0;strokeWidth=1;shadow=0;" vertex="1" parent="R0bkzWcn6Nqj6Yno1ocy-1">
          <mxGeometry x="180" y="880" width="120" height="40" as="geometry" />
        </mxCell>
        <mxCell id="X1dvKrp_Ua0pMOF5n164-3" style="rounded=0;orthogonalLoop=1;jettySize=auto;html=1;entryX=1;entryY=0;entryDx=0;entryDy=0;" edge="1" parent="R0bkzWcn6Nqj6Yno1ocy-1" source="R0bkzWcn6Nqj6Yno1ocy-28" target="R0bkzWcn6Nqj6Yno1ocy-17">
          <mxGeometry relative="1" as="geometry" />
        </mxCell>
        <mxCell id="R0bkzWcn6Nqj6Yno1ocy-28" value="Assemble sensor case(s)" style="rounded=1;whiteSpace=wrap;html=1;fontSize=12;glass=0;strokeWidth=1;shadow=0;" vertex="1" parent="R0bkzWcn6Nqj6Yno1ocy-1">
          <mxGeometry x="365" y="640" width="120" height="40" as="geometry" />
        </mxCell>
        <mxCell id="R0bkzWcn6Nqj6Yno1ocy-29" value="" style="rounded=0;orthogonalLoop=1;jettySize=auto;html=1;entryX=1;entryY=0.5;entryDx=0;entryDy=0;exitX=0.5;exitY=1;exitDx=0;exitDy=0;" edge="1" parent="R0bkzWcn6Nqj6Yno1ocy-1" source="R0bkzWcn6Nqj6Yno1ocy-30" target="R0bkzWcn6Nqj6Yno1ocy-28">
          <mxGeometry relative="1" as="geometry">
            <mxPoint x="605" y="615" as="targetPoint" />
          </mxGeometry>
        </mxCell>
        <mxCell id="R0bkzWcn6Nqj6Yno1ocy-30" value="Create sensor case" style="rounded=1;whiteSpace=wrap;html=1;fontSize=12;glass=0;strokeWidth=1;shadow=0;" vertex="1" parent="R0bkzWcn6Nqj6Yno1ocy-1">
          <mxGeometry x="545" y="515" width="120" height="40" as="geometry" />
        </mxCell>
        <mxCell id="X1dvKrp_Ua0pMOF5n164-1" value="Yes" style="edgeStyle=orthogonalEdgeStyle;rounded=0;orthogonalLoop=1;jettySize=auto;html=1;" edge="1" parent="R0bkzWcn6Nqj6Yno1ocy-1" source="iFYgI6rw6ifgHwxi8tnC-0" target="R0bkzWcn6Nqj6Yno1ocy-24">
          <mxGeometry relative="1" as="geometry" />
        </mxCell>
        <mxCell id="X1dvKrp_Ua0pMOF5n164-2" style="edgeStyle=orthogonalEdgeStyle;rounded=0;orthogonalLoop=1;jettySize=auto;html=1;entryX=0.5;entryY=0;entryDx=0;entryDy=0;" edge="1" parent="R0bkzWcn6Nqj6Yno1ocy-1" source="iFYgI6rw6ifgHwxi8tnC-0" target="R0bkzWcn6Nqj6Yno1ocy-17">
          <mxGeometry relative="1" as="geometry" />
        </mxCell>
        <mxCell id="iFYgI6rw6ifgHwxi8tnC-0" value="Sensor requires individual case?" style="rhombus;whiteSpace=wrap;html=1;shadow=0;fontFamily=Helvetica;fontSize=12;align=center;strokeWidth=1;spacing=6;spacingTop=-4;" vertex="1" parent="R0bkzWcn6Nqj6Yno1ocy-1">
          <mxGeometry x="175" y="480" width="130" height="110" as="geometry" />
        </mxCell>
        <mxCell id="X1dvKrp_Ua0pMOF5n164-9" value="" style="edgeStyle=orthogonalEdgeStyle;rounded=0;orthogonalLoop=1;jettySize=auto;html=1;" edge="1" parent="R0bkzWcn6Nqj6Yno1ocy-1" source="X1dvKrp_Ua0pMOF5n164-6" target="R0bkzWcn6Nqj6Yno1ocy-14">
          <mxGeometry relative="1" as="geometry" />
        </mxCell>
        <mxCell id="X1dvKrp_Ua0pMOF5n164-6" value="Configure firmware through CLI" style="rounded=1;whiteSpace=wrap;html=1;fontSize=12;glass=0;strokeWidth=1;shadow=0;" vertex="1" parent="R0bkzWcn6Nqj6Yno1ocy-1">
          <mxGeometry x="180" y="960" width="120" height="40" as="geometry" />
        </mxCell>
      </root>
    </mxGraphModel>
  </diagram>
  <diagram id="rb-66yY6My2xk9Vfx3eA" name="sensorHardwareConnection">
    <mxGraphModel dx="934" dy="864" grid="1" gridSize="10" guides="1" tooltips="1" connect="1" arrows="1" fold="1" page="1" pageScale="1" pageWidth="850" pageHeight="1100" math="0" shadow="0">
      <root>
        <mxCell id="0" />
        <mxCell id="1" parent="0" />
        <mxCell id="V1AHxdpqNz5c_lhplDCv-1" value="Analog" style="rounded=0;orthogonalLoop=1;jettySize=auto;html=1;exitX=0;exitY=1;exitDx=0;exitDy=0;entryX=0.5;entryY=0;entryDx=0;entryDy=0;" edge="1" parent="1" source="CcQ5hr6PIaj8yADRbP67-3" target="V1AHxdpqNz5c_lhplDCv-9">
          <mxGeometry relative="1" as="geometry">
            <mxPoint x="339.9999999999998" y="160" as="sourcePoint" />
          </mxGeometry>
        </mxCell>
        <mxCell id="V1AHxdpqNz5c_lhplDCv-2" value="Digital" style="rounded=0;orthogonalLoop=1;jettySize=auto;html=1;exitX=1;exitY=1;exitDx=0;exitDy=0;entryX=0.5;entryY=0;entryDx=0;entryDy=0;" edge="1" parent="1" source="CcQ5hr6PIaj8yADRbP67-3" target="V1AHxdpqNz5c_lhplDCv-6">
          <mxGeometry relative="1" as="geometry">
            <mxPoint x="459.9999999999998" y="160" as="sourcePoint" />
          </mxGeometry>
        </mxCell>
        <mxCell id="V1AHxdpqNz5c_lhplDCv-25" value="I2C" style="rounded=0;orthogonalLoop=1;jettySize=auto;html=1;entryX=0.5;entryY=0;entryDx=0;entryDy=0;exitX=0;exitY=1;exitDx=0;exitDy=0;" edge="1" parent="1" source="V1AHxdpqNz5c_lhplDCv-6" target="V1AHxdpqNz5c_lhplDCv-23">
          <mxGeometry relative="1" as="geometry" />
        </mxCell>
        <mxCell id="V1AHxdpqNz5c_lhplDCv-28" value="GPIO" style="rounded=0;orthogonalLoop=1;jettySize=auto;html=1;exitX=1;exitY=1;exitDx=0;exitDy=0;entryX=0.5;entryY=0;entryDx=0;entryDy=0;" edge="1" parent="1" source="V1AHxdpqNz5c_lhplDCv-6" target="V1AHxdpqNz5c_lhplDCv-24">
          <mxGeometry relative="1" as="geometry" />
        </mxCell>
        <mxCell id="V1AHxdpqNz5c_lhplDCv-6" value="Communication?" style="rhombus;whiteSpace=wrap;html=1;shadow=0;fontFamily=Helvetica;fontSize=12;align=center;strokeWidth=1;spacing=6;spacingTop=-4;" vertex="1" parent="1">
          <mxGeometry x="490" y="200" width="110" height="110" as="geometry" />
        </mxCell>
        <mxCell id="V1AHxdpqNz5c_lhplDCv-7" value="3 V" style="rounded=0;orthogonalLoop=1;jettySize=auto;html=1;exitX=0;exitY=1;exitDx=0;exitDy=0;entryX=0.5;entryY=0;entryDx=0;entryDy=0;" edge="1" parent="1" source="V1AHxdpqNz5c_lhplDCv-9" target="V1AHxdpqNz5c_lhplDCv-21">
          <mxGeometry relative="1" as="geometry">
            <mxPoint x="140" y="255" as="targetPoint" />
          </mxGeometry>
        </mxCell>
        <mxCell id="V1AHxdpqNz5c_lhplDCv-8" value="5 V" style="rounded=0;orthogonalLoop=1;jettySize=auto;html=1;exitX=1;exitY=1;exitDx=0;exitDy=0;entryX=0.5;entryY=0;entryDx=0;entryDy=0;" edge="1" parent="1" source="V1AHxdpqNz5c_lhplDCv-9" target="V1AHxdpqNz5c_lhplDCv-22">
          <mxGeometry relative="1" as="geometry">
            <mxPoint x="272.5" y="360" as="targetPoint" />
          </mxGeometry>
        </mxCell>
        <mxCell id="c9wY5MXqaez40wSq-xqU-8" value="Other" style="edgeStyle=orthogonalEdgeStyle;rounded=0;orthogonalLoop=1;jettySize=auto;html=1;entryX=0;entryY=0.5;entryDx=0;entryDy=0;" edge="1" parent="1" source="V1AHxdpqNz5c_lhplDCv-9" target="c9wY5MXqaez40wSq-xqU-1">
          <mxGeometry x="-0.1208" relative="1" as="geometry">
            <Array as="points">
              <mxPoint x="270" y="705" />
            </Array>
            <mxPoint as="offset" />
          </mxGeometry>
        </mxCell>
        <mxCell id="V1AHxdpqNz5c_lhplDCv-9" value="Voltage needed?" style="rhombus;whiteSpace=wrap;html=1;shadow=0;fontFamily=Helvetica;fontSize=12;align=center;strokeWidth=1;spacing=6;spacingTop=-4;" vertex="1" parent="1">
          <mxGeometry x="210" y="200" width="120" height="110" as="geometry" />
        </mxCell>
        <mxCell id="V1AHxdpqNz5c_lhplDCv-21" value="&lt;div&gt;Internal ADC port&lt;/div&gt;" style="rounded=1;whiteSpace=wrap;html=1;fontSize=12;glass=0;strokeWidth=1;shadow=0;" vertex="1" parent="1">
          <mxGeometry x="140" y="340" width="120" height="40" as="geometry" />
        </mxCell>
        <mxCell id="V1AHxdpqNz5c_lhplDCv-22" value="&lt;div&gt;External ADC port&lt;/div&gt;" style="rounded=1;whiteSpace=wrap;html=1;fontSize=12;glass=0;strokeWidth=1;shadow=0;" vertex="1" parent="1">
          <mxGeometry x="280" y="340" width="120" height="40" as="geometry" />
        </mxCell>
        <mxCell id="V1AHxdpqNz5c_lhplDCv-36" value="" style="rounded=0;orthogonalLoop=1;jettySize=auto;html=1;entryX=0.5;entryY=0;entryDx=0;entryDy=0;exitX=0.5;exitY=1;exitDx=0;exitDy=0;" edge="1" parent="1" source="V1AHxdpqNz5c_lhplDCv-23" target="V1AHxdpqNz5c_lhplDCv-35">
          <mxGeometry relative="1" as="geometry" />
        </mxCell>
        <mxCell id="V1AHxdpqNz5c_lhplDCv-23" value="I2C port" style="rounded=1;whiteSpace=wrap;html=1;fontSize=12;glass=0;strokeWidth=1;shadow=0;" vertex="1" parent="1">
          <mxGeometry x="410" y="340" width="120" height="40" as="geometry" />
        </mxCell>
        <mxCell id="V1AHxdpqNz5c_lhplDCv-30" value="" style="rounded=0;orthogonalLoop=1;jettySize=auto;html=1;entryX=0.5;entryY=0;entryDx=0;entryDy=0;exitX=0.5;exitY=1;exitDx=0;exitDy=0;" edge="1" parent="1" source="V1AHxdpqNz5c_lhplDCv-24" target="V1AHxdpqNz5c_lhplDCv-29">
          <mxGeometry relative="1" as="geometry" />
        </mxCell>
        <mxCell id="V1AHxdpqNz5c_lhplDCv-24" value="GPIO Pin" style="rounded=1;whiteSpace=wrap;html=1;fontSize=12;glass=0;strokeWidth=1;shadow=0;" vertex="1" parent="1">
          <mxGeometry x="550" y="340" width="120" height="40" as="geometry" />
        </mxCell>
        <mxCell id="c9wY5MXqaez40wSq-xqU-6" value="Other" style="edgeStyle=orthogonalEdgeStyle;rounded=0;orthogonalLoop=1;jettySize=auto;html=1;entryX=1;entryY=0.5;entryDx=0;entryDy=0;" edge="1" parent="1" source="V1AHxdpqNz5c_lhplDCv-29" target="c9wY5MXqaez40wSq-xqU-1">
          <mxGeometry x="0.287" relative="1" as="geometry">
            <Array as="points">
              <mxPoint x="680" y="705" />
            </Array>
            <mxPoint as="offset" />
          </mxGeometry>
        </mxCell>
        <mxCell id="V1AHxdpqNz5c_lhplDCv-29" value="Voltage needed?" style="rhombus;whiteSpace=wrap;html=1;shadow=0;fontFamily=Helvetica;fontSize=12;align=center;strokeWidth=1;spacing=6;spacingTop=-4;" vertex="1" parent="1">
          <mxGeometry x="620" y="440" width="120" height="110" as="geometry" />
        </mxCell>
        <mxCell id="V1AHxdpqNz5c_lhplDCv-31" value="3 V" style="rounded=0;orthogonalLoop=1;jettySize=auto;html=1;exitX=0;exitY=1;exitDx=0;exitDy=0;entryX=0.5;entryY=0;entryDx=0;entryDy=0;" edge="1" parent="1" target="V1AHxdpqNz5c_lhplDCv-33">
          <mxGeometry relative="1" as="geometry">
            <mxPoint x="650" y="523" as="sourcePoint" />
            <mxPoint x="550" y="495" as="targetPoint" />
          </mxGeometry>
        </mxCell>
        <mxCell id="V1AHxdpqNz5c_lhplDCv-32" value="5 V" style="rounded=0;orthogonalLoop=1;jettySize=auto;html=1;exitX=1;exitY=1;exitDx=0;exitDy=0;entryX=0.5;entryY=0;entryDx=0;entryDy=0;" edge="1" parent="1" target="V1AHxdpqNz5c_lhplDCv-34">
          <mxGeometry relative="1" as="geometry">
            <mxPoint x="710" y="523" as="sourcePoint" />
            <mxPoint x="682.5" y="600" as="targetPoint" />
          </mxGeometry>
        </mxCell>
        <mxCell id="V1AHxdpqNz5c_lhplDCv-33" value="&lt;div&gt;Internal ADC port power and ground&lt;/div&gt;" style="rounded=1;whiteSpace=wrap;html=1;fontSize=12;glass=0;strokeWidth=1;shadow=0;" vertex="1" parent="1">
          <mxGeometry x="550" y="590" width="120" height="50" as="geometry" />
        </mxCell>
        <mxCell id="V1AHxdpqNz5c_lhplDCv-34" value="&lt;div&gt;External ADC port power and ground&lt;/div&gt;" style="rounded=1;whiteSpace=wrap;html=1;fontSize=12;glass=0;strokeWidth=1;shadow=0;" vertex="1" parent="1">
          <mxGeometry x="690" y="590" width="120" height="50" as="geometry" />
        </mxCell>
        <mxCell id="c9wY5MXqaez40wSq-xqU-7" value="Other" style="rounded=0;orthogonalLoop=1;jettySize=auto;html=1;" edge="1" parent="1" source="V1AHxdpqNz5c_lhplDCv-35" target="c9wY5MXqaez40wSq-xqU-1">
          <mxGeometry x="-0.0606" relative="1" as="geometry">
            <mxPoint as="offset" />
          </mxGeometry>
        </mxCell>
        <mxCell id="V1AHxdpqNz5c_lhplDCv-35" value="Voltage needed?" style="rhombus;whiteSpace=wrap;html=1;shadow=0;fontFamily=Helvetica;fontSize=12;align=center;strokeWidth=1;spacing=6;spacingTop=-4;" vertex="1" parent="1">
          <mxGeometry x="350" y="440" width="120" height="110" as="geometry" />
        </mxCell>
        <mxCell id="V1AHxdpqNz5c_lhplDCv-38" value="3 V / 5 V" style="rounded=0;orthogonalLoop=1;jettySize=auto;html=1;exitX=1;exitY=1;exitDx=0;exitDy=0;entryX=0.5;entryY=0;entryDx=0;entryDy=0;" edge="1" parent="1" target="V1AHxdpqNz5c_lhplDCv-40">
          <mxGeometry relative="1" as="geometry">
            <mxPoint x="440" y="523" as="sourcePoint" />
            <mxPoint x="412.5" y="600" as="targetPoint" />
          </mxGeometry>
        </mxCell>
        <mxCell id="V1AHxdpqNz5c_lhplDCv-40" value="&lt;div&gt;Solder jumpers for I2C port&lt;/div&gt;" style="rounded=1;whiteSpace=wrap;html=1;fontSize=12;glass=0;strokeWidth=1;shadow=0;" vertex="1" parent="1">
          <mxGeometry x="420" y="590" width="120" height="50" as="geometry" />
        </mxCell>
        <mxCell id="c9wY5MXqaez40wSq-xqU-1" value="&lt;div&gt;Create custom power solution&lt;/div&gt;" style="rounded=1;whiteSpace=wrap;html=1;fontSize=12;glass=0;strokeWidth=1;shadow=0;" vertex="1" parent="1">
          <mxGeometry x="210" y="680" width="120" height="50" as="geometry" />
        </mxCell>
        <mxCell id="CcQ5hr6PIaj8yADRbP67-1" value="" style="edgeStyle=orthogonalEdgeStyle;rounded=0;orthogonalLoop=1;jettySize=auto;html=1;" edge="1" parent="1" source="CcQ5hr6PIaj8yADRbP67-2" target="CcQ5hr6PIaj8yADRbP67-3">
          <mxGeometry relative="1" as="geometry" />
        </mxCell>
        <mxCell id="CcQ5hr6PIaj8yADRbP67-2" value="&lt;div&gt;Select sensor&lt;/div&gt;" style="rounded=1;whiteSpace=wrap;html=1;fontSize=12;glass=0;strokeWidth=1;shadow=0;" vertex="1" parent="1">
          <mxGeometry x="340" y="10" width="120" height="40" as="geometry" />
        </mxCell>
        <mxCell id="CcQ5hr6PIaj8yADRbP67-3" value="Sensor type?" style="rhombus;whiteSpace=wrap;html=1;shadow=0;fontFamily=Helvetica;fontSize=12;align=center;strokeWidth=1;spacing=6;spacingTop=-4;" vertex="1" parent="1">
          <mxGeometry x="345" y="90" width="110" height="110" as="geometry" />
        </mxCell>
      </root>
    </mxGraphModel>
  </diagram>
  <diagram id="7WLTeQ_1mPURKtO7x-1Q" name="sensorDriverCreation">
    <mxGraphModel dx="794" dy="734" grid="1" gridSize="10" guides="1" tooltips="1" connect="1" arrows="1" fold="1" page="1" pageScale="1" pageWidth="1100" pageHeight="850" math="0" shadow="0">
      <root>
        <mxCell id="0" />
        <mxCell id="1" parent="0" />
        <mxCell id="r1NDd2Jhe1Bu4xwPqU3u-18" value="Analog" style="rounded=0;orthogonalLoop=1;jettySize=auto;html=1;exitX=0;exitY=1;exitDx=0;exitDy=0;entryX=0.5;entryY=0;entryDx=0;entryDy=0;" parent="1" source="q9heAnzcZX0AI7t6PK-c-2" target="r1NDd2Jhe1Bu4xwPqU3u-12" edge="1">
          <mxGeometry relative="1" as="geometry">
            <mxPoint x="499.9999999999998" y="180" as="sourcePoint" />
          </mxGeometry>
        </mxCell>
        <mxCell id="r1NDd2Jhe1Bu4xwPqU3u-19" value="Digital" style="rounded=0;orthogonalLoop=1;jettySize=auto;html=1;exitX=1;exitY=1;exitDx=0;exitDy=0;entryX=0.5;entryY=0;entryDx=0;entryDy=0;" parent="1" source="q9heAnzcZX0AI7t6PK-c-2" target="r1NDd2Jhe1Bu4xwPqU3u-5" edge="1">
          <mxGeometry relative="1" as="geometry">
            <mxPoint x="619.9999999999998" y="180" as="sourcePoint" />
          </mxGeometry>
        </mxCell>
        <mxCell id="r1NDd2Jhe1Bu4xwPqU3u-27" value="Other" style="rounded=0;orthogonalLoop=1;jettySize=auto;html=1;exitX=0;exitY=1;exitDx=0;exitDy=0;entryX=0.5;entryY=0;entryDx=0;entryDy=0;" parent="1" source="r1NDd2Jhe1Bu4xwPqU3u-5" target="2iQrBzhSQhorquvXakOg-6" edge="1">
          <mxGeometry relative="1" as="geometry">
            <mxPoint x="614.9999999999998" y="379.9999999999998" as="targetPoint" />
          </mxGeometry>
        </mxCell>
        <mxCell id="2iQrBzhSQhorquvXakOg-16" value="I2C/GPIO" style="rounded=0;orthogonalLoop=1;jettySize=auto;html=1;entryX=0.5;entryY=1;entryDx=0;entryDy=0;exitX=1;exitY=1;exitDx=0;exitDy=0;" parent="1" source="r1NDd2Jhe1Bu4xwPqU3u-5" target="2iQrBzhSQhorquvXakOg-9" edge="1">
          <mxGeometry relative="1" as="geometry" />
        </mxCell>
        <mxCell id="r1NDd2Jhe1Bu4xwPqU3u-5" value="Communication?" style="rhombus;whiteSpace=wrap;html=1;shadow=0;fontFamily=Helvetica;fontSize=12;align=center;strokeWidth=1;spacing=6;spacingTop=-4;" parent="1" vertex="1">
          <mxGeometry x="615" y="240" width="110" height="110" as="geometry" />
        </mxCell>
        <mxCell id="r1NDd2Jhe1Bu4xwPqU3u-17" value="No" style="rounded=0;orthogonalLoop=1;jettySize=auto;html=1;exitX=1;exitY=1;exitDx=0;exitDy=0;entryX=0.5;entryY=0;entryDx=0;entryDy=0;" parent="1" source="r1NDd2Jhe1Bu4xwPqU3u-12" target="r1NDd2Jhe1Bu4xwPqU3u-16" edge="1">
          <mxGeometry relative="1" as="geometry" />
        </mxCell>
        <mxCell id="2iQrBzhSQhorquvXakOg-5" value="Yes" style="rounded=0;orthogonalLoop=1;jettySize=auto;html=1;" parent="1" source="r1NDd2Jhe1Bu4xwPqU3u-12" target="2iQrBzhSQhorquvXakOg-3" edge="1">
          <mxGeometry relative="1" as="geometry" />
        </mxCell>
        <mxCell id="r1NDd2Jhe1Bu4xwPqU3u-12" value="Specific operation?" style="rhombus;whiteSpace=wrap;html=1;shadow=0;fontFamily=Helvetica;fontSize=12;align=center;strokeWidth=1;spacing=6;spacingTop=-4;" parent="1" vertex="1">
          <mxGeometry x="385" y="240" width="120" height="110" as="geometry" />
        </mxCell>
        <mxCell id="r1NDd2Jhe1Bu4xwPqU3u-16" value="&lt;div&gt;use generic analog driver&lt;/div&gt;" style="rounded=1;whiteSpace=wrap;html=1;fontSize=12;glass=0;strokeWidth=1;shadow=0;" parent="1" vertex="1">
          <mxGeometry x="430" y="422.5" width="120" height="35" as="geometry" />
        </mxCell>
        <mxCell id="2iQrBzhSQhorquvXakOg-3" value="Copy generic analog driver and implement special features" style="rounded=1;whiteSpace=wrap;html=1;fontSize=12;glass=0;strokeWidth=1;shadow=0;" parent="1" vertex="1">
          <mxGeometry x="310" y="400" width="105" height="80" as="geometry" />
        </mxCell>
        <mxCell id="2iQrBzhSQhorquvXakOg-6" value="&lt;div&gt;Cannot use sensor currently&lt;/div&gt;" style="rounded=1;whiteSpace=wrap;html=1;fontSize=12;glass=0;strokeWidth=1;shadow=0;" parent="1" vertex="1">
          <mxGeometry x="560" y="422.5" width="120" height="35" as="geometry" />
        </mxCell>
        <mxCell id="2iQrBzhSQhorquvXakOg-8" value="Copy driver template, include library, and wrap necessary functions" style="rounded=1;whiteSpace=wrap;html=1;fontSize=12;glass=0;strokeWidth=1;shadow=0;" parent="1" vertex="1">
          <mxGeometry x="635" y="520" width="110" height="70" as="geometry" />
        </mxCell>
        <mxCell id="2iQrBzhSQhorquvXakOg-13" value="Yes" style="rounded=0;orthogonalLoop=1;jettySize=auto;html=1;exitX=1;exitY=0;exitDx=0;exitDy=0;entryX=0.5;entryY=0;entryDx=0;entryDy=0;" parent="1" source="2iQrBzhSQhorquvXakOg-9" target="2iQrBzhSQhorquvXakOg-8" edge="1">
          <mxGeometry relative="1" as="geometry" />
        </mxCell>
        <mxCell id="2iQrBzhSQhorquvXakOg-14" value="No" style="rounded=0;orthogonalLoop=1;jettySize=auto;html=1;exitX=0;exitY=0;exitDx=0;exitDy=0;entryX=0.5;entryY=0;entryDx=0;entryDy=0;" parent="1" source="2iQrBzhSQhorquvXakOg-9" target="2iQrBzhSQhorquvXakOg-11" edge="1">
          <mxGeometry relative="1" as="geometry" />
        </mxCell>
        <mxCell id="2iQrBzhSQhorquvXakOg-9" value="Sensor library exists on GitHub?" style="rhombus;whiteSpace=wrap;html=1;shadow=0;fontFamily=Helvetica;fontSize=12;align=center;strokeWidth=1;spacing=6;spacingTop=-4;direction=west;" parent="1" vertex="1">
          <mxGeometry x="700" y="400" width="110" height="110" as="geometry" />
        </mxCell>
        <mxCell id="2iQrBzhSQhorquvXakOg-11" value="Copy driver template and use documentation to fill out functionality" style="rounded=1;whiteSpace=wrap;html=1;fontSize=12;glass=0;strokeWidth=1;shadow=0;" parent="1" vertex="1">
          <mxGeometry x="765" y="520" width="110" height="70" as="geometry" />
        </mxCell>
        <mxCell id="q9heAnzcZX0AI7t6PK-c-3" value="" style="edgeStyle=orthogonalEdgeStyle;rounded=0;orthogonalLoop=1;jettySize=auto;html=1;" edge="1" parent="1" source="q9heAnzcZX0AI7t6PK-c-1" target="q9heAnzcZX0AI7t6PK-c-2">
          <mxGeometry relative="1" as="geometry" />
        </mxCell>
        <mxCell id="q9heAnzcZX0AI7t6PK-c-1" value="&lt;div&gt;Select sensor&lt;/div&gt;" style="rounded=1;whiteSpace=wrap;html=1;fontSize=12;glass=0;strokeWidth=1;shadow=0;" vertex="1" parent="1">
          <mxGeometry x="500" y="40" width="120" height="40" as="geometry" />
        </mxCell>
        <mxCell id="q9heAnzcZX0AI7t6PK-c-2" value="Sensor type?" style="rhombus;whiteSpace=wrap;html=1;shadow=0;fontFamily=Helvetica;fontSize=12;align=center;strokeWidth=1;spacing=6;spacingTop=-4;" vertex="1" parent="1">
          <mxGeometry x="505" y="120" width="110" height="110" as="geometry" />
        </mxCell>
      </root>
    </mxGraphModel>
  </diagram>
  <diagram id="kVfFR_PzbXd3OhRAK_Jn" name="deploymentConfiguration">
    <mxGraphModel dx="794" dy="734" grid="1" gridSize="10" guides="1" tooltips="1" connect="1" arrows="1" fold="1" page="1" pageScale="1" pageWidth="850" pageHeight="1100" math="0" shadow="0">
      <root>
        <mxCell id="0" />
        <mxCell id="1" parent="0" />
      </root>
    </mxGraphModel>
  </diagram>
  <diagram id="PoqNpYeEWquN7ClSAP2J" name="powerSourceSelection">
    <mxGraphModel dx="794" dy="734" grid="1" gridSize="10" guides="1" tooltips="1" connect="1" arrows="1" fold="1" page="1" pageScale="1" pageWidth="850" pageHeight="1100" math="0" shadow="0">
      <root>
        <mxCell id="0" />
        <mxCell id="1" parent="0" />
      </root>
    </mxGraphModel>
  </diagram>
  <diagram id="MwvhK1ax3V7rvu1YHmRd" name="submersibleCaseCustomization">
    <mxGraphModel dx="794" dy="734" grid="1" gridSize="10" guides="1" tooltips="1" connect="1" arrows="1" fold="1" page="1" pageScale="1" pageWidth="850" pageHeight="1100" math="0" shadow="0">
      <root>
        <mxCell id="0" />
        <mxCell id="1" parent="0" />
      </root>
    </mxGraphModel>
  </diagram>
  <diagram id="3O0MW-kn8bukDqX0c3e_" name="subermsibleSensorCaseCustomization">
    <mxGraphModel dx="794" dy="734" grid="1" gridSize="10" guides="1" tooltips="1" connect="1" arrows="1" fold="1" page="1" pageScale="1" pageWidth="850" pageHeight="1100" math="0" shadow="0">
      <root>
        <mxCell id="0" />
        <mxCell id="1" parent="0" />
      </root>
    </mxGraphModel>
  </diagram>
  <diagram id="y_dfydmaumJEchycm4td" name="customCaseDesign">
    <mxGraphModel dx="794" dy="734" grid="1" gridSize="10" guides="1" tooltips="1" connect="1" arrows="1" fold="1" page="1" pageScale="1" pageWidth="850" pageHeight="1100" math="0" shadow="0">
      <root>
        <mxCell id="0" />
        <mxCell id="1" parent="0" />
      </root>
    </mxGraphModel>
  </diagram>
</mxfile>
